<?xml version="1.0" encoding="UTF-8"?>
<svg width="252px" height="83px" viewBox="0 0 252 83" version="1.1" xmlns="http://www.w3.org/2000/svg" xmlns:xlink="http://www.w3.org/1999/xlink">
    <!-- Generator: Sketch 63 (92445) - https://sketch.com -->
    <title>Artboard Copy</title>
    <desc>Created with Sketch.</desc>
    <g id="Artboard-Copy" stroke="none" stroke-width="1" fill="none" fill-rule="evenodd">
        <text id="Vuetify-Copy" font-family="AvenirNext-Medium, Avenir Next" font-size="48" font-weight="400" letter-spacing="-1.1" fill="#0D3F77">
            <tspan x="14" y="57">Vuetify</tspan>
        </text>
        <g id="Group-5-Copy" transform="translate(168.000000, 9.000000)">
            <rect id="Rectangle" stroke="#0D3F77" stroke-width="2" x="0" y="0" width="70" height="63" rx="4"></rect>
            <path d="M27.496,48.896 C29.704,48.896 31.712,48.56 33.52,47.888 C35.328,47.216 36.872,46.28 38.152,45.08 C39.432,43.88 40.416,42.44 41.104,40.76 C41.792,39.08 42.136,37.216 42.136,35.168 L42.136,35.168 L42.136,14 L33.928,14 L33.928,34.496 C33.928,35.424 33.816,36.304 33.592,37.136 C33.368,37.968 33,38.712 32.488,39.368 C31.976,40.024 31.312,40.544 30.496,40.928 C29.68,41.312 28.696,41.504 27.544,41.504 C26.392,41.504 25.408,41.312 24.592,40.928 C23.776,40.544 23.12,40.024 22.624,39.368 C22.128,38.712 21.76,37.968 21.52,37.136 C21.28,36.304 21.16,35.424 21.16,34.496 L21.16,34.496 L21.16,14 L13,14 L13,35.168 C13,37.216 13.336,39.08 14.008,40.76 C14.68,42.44 15.64,43.88 16.888,45.08 C18.136,46.28 19.656,47.216 21.448,47.888 C23.24,48.56 25.256,48.896 27.496,48.896 Z M57.016,47.984 L57.016,14 L48.76,14 L48.76,47.984 L57.016,47.984 Z" id="UI" fill="#0D3F77" fill-rule="nonzero"></path>
        </g>
    </g>
</svg>