<svg height="83" viewBox="0 0 252 83" width="252" xmlns="http://www.w3.org/2000/svg"><g fill="none" fill-rule="evenodd"><path d="m31.568 57 13.344-33.984h-5.136l-10.224 27.84h-.144l-10.224-27.84h-5.28l13.248 33.984zm22.324.624c1.664 0 3.176-.424 4.536-1.272s2.328-1.88 2.904-3.096h.096c0 .48.016 1.08.048 1.8s.08 1.368.144 1.944h4.272c-.064-.736-.112-1.584-.144-2.544s-.048-1.744-.048-2.352v-17.856h-4.512v12.096c0 2.272-.56 4.088-1.68 5.448s-2.592 2.04-4.416 2.04c-1.056 0-1.92-.192-2.592-.576s-1.2-.896-1.584-1.536-.648-1.384-.792-2.232-.216-1.736-.216-2.664v-12.576h-4.512v14.112c0 1.28.168 2.48.504 3.6s.848 2.104 1.536 2.952 1.568 1.512 2.64 1.992 2.344.72 3.816.72zm29.044 0c2.016 0 3.848-.376 5.496-1.128s3.08-1.928 4.296-3.528l-3.168-2.544c-.64.96-1.52 1.776-2.64 2.448s-2.448 1.008-3.984 1.008c-.992 0-1.928-.176-2.808-.528s-1.656-.84-2.328-1.464-1.208-1.36-1.608-2.208-.616-1.752-.648-2.712h18.048c.032-.256.048-.512.048-.768v-.768c0-1.824-.256-3.464-.768-4.92s-1.24-2.696-2.184-3.72-2.096-1.808-3.456-2.352-2.872-.816-4.536-.816-3.216.296-4.656.888-2.688 1.416-3.744 2.472-1.88 2.328-2.472 3.816-.888 3.112-.888 4.872c0 1.792.304 3.424.912 4.896s1.44 2.728 2.496 3.768 2.32 1.848 3.792 2.424 3.072.864 4.8.864zm6.144-14.016h-13.536c.064-.896.296-1.736.696-2.52s.912-1.464 1.536-2.04 1.36-1.032 2.208-1.368 1.752-.504 2.712-.504c1.056 0 1.976.168 2.76.504s1.44.792 1.968 1.368.928 1.256 1.2 2.04.424 1.624.456 2.52zm16.996 13.776c.704 0 1.384-.056 2.04-.168s1.256-.264 1.8-.456l-.144-3.696c-.384.192-.816.336-1.296.432s-.928.144-1.344.144c-1.12 0-1.936-.296-2.448-.888s-.768-1.576-.768-2.952v-11.856h6.048v-3.696h-6.048v-6.528h-4.464v6.528h-4.368v3.696h4.368v12.336c0 2.368.568 4.144 1.704 5.328s2.776 1.776 4.92 1.776zm9.748-28.464c.832 0 1.544-.272 2.136-.816s.888-1.232.888-2.064-.296-1.528-.888-2.088-1.304-.84-2.136-.84-1.536.28-2.112.84-.864 1.256-.864 2.088c0 .8.288 1.48.864 2.04s1.28.84 2.112.84zm2.256 28.08v-22.752h-4.512v22.752zm12.196 0v-19.056h5.28v-3.696h-5.28v-4.752c0-.704.048-1.384.144-2.04s.288-1.24.576-1.752.696-.92 1.224-1.224 1.224-.456 2.088-.456c.448 0 .848.032 1.2.096s.704.144 1.056.24l.528-3.888c-.8-.224-1.744-.336-2.832-.336-1.536 0-2.84.24-3.912.72s-1.952 1.136-2.64 1.968-1.184 1.816-1.488 2.952-.456 2.376-.456 3.72v4.752h-4.512v3.696h4.512v19.056zm9.268 11.52c1.12 0 2.088-.144 2.904-.432s1.528-.696 2.136-1.224 1.136-1.168 1.584-1.92.864-1.608 1.248-2.568l11.04-28.128h-4.8l-6.288 17.856h-.096l-7.056-17.856h-5.04l9.744 22.752-1.44 3.792c-.48 1.216-1.008 2.152-1.584 2.808s-1.456.984-2.64.984c-.736 0-1.488-.128-2.256-.384l-.432 3.984c.512.128 1.016.216 1.512.264s.984.072 1.464.072z" fill="#0d3f77" fill-rule="nonzero"/><g transform="translate(168 9)"><rect height="63" rx="4" stroke="#0d3f77" stroke-width="2" width="70"/><path d="m27.496 48.896c2.208 0 4.216-.336 6.024-1.008s3.352-1.608 4.632-2.808 2.264-2.64 2.952-4.32 1.032-3.544 1.032-5.592v-21.168h-8.208v20.496c0 .928-.112 1.808-.336 2.64s-.592 1.576-1.104 2.232-1.176 1.176-1.992 1.56-1.8.576-2.952.576-2.136-.192-2.952-.576-1.472-.904-1.968-1.56-.864-1.4-1.104-2.232-.36-1.712-.36-2.64v-20.496h-8.16v21.168c0 2.048.336 3.912 1.008 5.592s1.632 3.12 2.88 4.32 2.768 2.136 4.56 2.808 3.808 1.008 6.048 1.008zm29.52-.912v-33.984h-8.256v33.984z" fill="#0d3f77" fill-rule="nonzero"/></g></g></svg>
